<?xml version="1.0" encoding="UTF-8" standalone="no"?>
<!DOCTYPE svg PUBLIC "-//W3C//DTD SVG 1.1//EN" "http://www.w3.org/Graphics/SVG/1.1/DTD/svg11.dtd">
<svg width="100%" height="100%" viewBox="0 0 1050 2611" version="1.1" xmlns="http://www.w3.org/2000/svg" xmlns:xlink="http://www.w3.org/1999/xlink" xml:space="preserve" xmlns:serif="http://www.serif.com/" style="fill-rule:evenodd;clip-rule:evenodd;stroke-linecap:round;stroke-linejoin:round;stroke-miterlimit:1.5;">
    <g id="Style-1" serif:id="Style 1" transform="matrix(0.411765,0,0,0.790978,0,0)">
        <rect x="0" y="0" width="2550" height="3300" style="fill:none;"/>
        <g id="Monogram" transform="matrix(4.2033,0,0,2.18814,-4262.84,-1485.88)">
            <g transform="matrix(1,0,0,1,0,520)">
                <circle cx="1317.5" cy="912.5" r="193.5" style="fill:white;"/>
            </g>
            <g transform="matrix(1,0,0,1,0,1040)">
                <circle cx="1317.5" cy="912.5" r="193.5" style="fill:white;"/>
            </g>
            <circle cx="1317.5" cy="912.5" r="193.5" style="fill:white;stroke:black;stroke-width:41.67px;"/>
            <path d="M1531.83,1432.5L1531.83,1952.5C1531.83,2091.15 1427.03,2168.09 1317.5,2168.09C1229.01,2168.09 1103.17,2100.72 1103.17,1952.5C1103.17,1804.24 1232.63,1738.17 1317.5,1738.17C1344.25,1738.17 1360.8,1741.4 1370.93,1745.29C1382.17,1749.62 1388.15,1755.44 1391.64,1760.59L1395.77,1769.23L1397.09,1777.82L1395.73,1787.48L1393.29,1793.56L1390.38,1798.21C1383.4,1807.35 1370.32,1809.11 1361.18,1802.13C1355.35,1797.67 1352.52,1790.73 1353.06,1783.91C1346.21,1782.29 1333.24,1779.83 1317.5,1779.83C1249.13,1779.83 1144.83,1833.06 1144.83,1952.5C1144.83,2071.99 1246.16,2126.42 1317.5,2126.42C1405.8,2126.42 1490.17,2064.27 1490.17,1952.5L1490.17,1560.1C1448.07,1615.9 1380.45,1646.83 1317.56,1646.83C1216.51,1646.83 1103.17,1564.79 1103.17,1432.5C1103.17,1324.04 1187.3,1218.17 1317.56,1218.17C1458.48,1218.17 1531.83,1337.56 1531.83,1432.5ZM1490.17,1432.5C1490.17,1356.02 1431.08,1259.83 1317.56,1259.83C1212.62,1259.83 1144.83,1345.12 1144.83,1432.5C1144.83,1539.08 1236.15,1605.17 1317.56,1605.17C1398.94,1605.17 1490.17,1540.85 1490.17,1432.5Z"/>
            <g transform="matrix(4.59243e-17,0.484167,-1,3.95289e-17,2943.5,578.545)">
                <path d="M689.75,1646.83C666.002,1646.83 646.721,1637.5 646.721,1626C646.721,1614.5 666.002,1605.17 689.75,1605.17L1763.76,1605.17C1787.51,1605.17 1806.79,1614.5 1806.79,1626C1806.79,1637.5 1787.51,1646.83 1763.76,1646.83L689.75,1646.83Z"/>
            </g>
            <g transform="matrix(0.484167,-1.62776e-17,-2.17034e-17,1,723.545,67.1285)">
                <path d="M689.75,1646.83C666.002,1646.83 646.721,1637.5 646.721,1626C646.721,1614.5 666.002,1605.17 689.75,1605.17L1763.76,1605.17C1787.51,1605.17 1806.79,1614.5 1806.79,1626C1806.79,1637.5 1787.51,1646.83 1763.76,1646.83L689.75,1646.83Z"/>
            </g>
        </g>
    </g>
</svg>
