<?xml version="1.0" encoding="UTF-8" standalone="no"?>
<svg
   width="100%"
   height="100%"
   viewBox="0 0 1050 2611"
   version="1.1"
   xml:space="preserve"
   style="fill-rule:evenodd;clip-rule:evenodd;stroke-linejoin:round;stroke-miterlimit:2;"
   id="svg8"
   sodipodi:docname="monogram.svg"
   inkscape:version="1.4 (e7c3feb100, 2024-10-09)"
   xmlns:inkscape="http://www.inkscape.org/namespaces/inkscape"
   xmlns:sodipodi="http://sodipodi.sourceforge.net/DTD/sodipodi-0.dtd"
   xmlns="http://www.w3.org/2000/svg"
   xmlns:svg="http://www.w3.org/2000/svg"
   xmlns:serif="http://www.serif.com/"><defs
   id="defs8" /><sodipodi:namedview
   id="namedview8"
   pagecolor="#ffffff"
   bordercolor="#000000"
   borderopacity="0.25"
   inkscape:showpageshadow="2"
   inkscape:pageopacity="0.0"
   inkscape:pagecheckerboard="0"
   inkscape:deskcolor="#d1d1d1"
   inkscape:zoom="0.1179414"
   inkscape:cx="-343.39086"
   inkscape:cy="2259.5967"
   inkscape:window-width="1904"
   inkscape:window-height="1034"
   inkscape:window-x="0"
   inkscape:window-y="0"
   inkscape:window-maximized="1"
   inkscape:current-layer="Monogram" />
    <g
   id="Style-1"
   serif:id="Style 1"
   transform="matrix(0.411765,0,0,0.790978,0,0)">
        <rect
   x="0"
   y="0"
   width="2550"
   height="3300"
   style="fill:none;"
   id="rect1" />
        <g
   id="Monogram"
   transform="matrix(4.2033,0,0,2.18814,-4262.84,-1485.88)">
            <g
   transform="matrix(1,0,0,1,0,520)"
   id="g1">
                <circle
   cx="1317.5"
   cy="912.5"
   r="193.5"
   style="fill:white;"
   id="circle1" />
            </g>
            <g
   transform="matrix(1,0,0,1,0,1040)"
   id="g2">
                <circle
   cx="1317.5"
   cy="912.5"
   r="193.5"
   style="fill:white;"
   id="circle2" />
            </g>
            <circle
   cx="1317.5"
   cy="912.5"
   r="193.5"
   style="fill:white;"
   id="circle3" />
            <path
   d="M1317.5,698.167C1435.79,698.167 1531.83,794.206 1531.83,912.5C1531.83,1030.79 1435.79,1126.83 1317.5,1126.83C1199.21,1126.83 1103.17,1030.79 1103.17,912.5C1103.17,794.206 1199.21,698.167 1317.5,698.167ZM1317.5,739.833C1222.2,739.833 1144.83,817.203 1144.83,912.5C1144.83,1007.8 1222.2,1085.17 1317.5,1085.17C1412.8,1085.17 1490.17,1007.8 1490.17,912.5C1490.17,817.203 1412.8,739.833 1317.5,739.833Z"
   id="path3" />
            <path
   d="M1531.83,1432.5L1531.83,1952.5C1531.83,2091.15 1424.55,2168.09 1317.5,2168.09C1210.45,2168.09 1103.17,2076.85 1103.17,1952.5C1103.17,1828.11 1202.65,1738.17 1317.5,1738.17C1429.82,1738.17 1427.93,1795.51 1414.76,1818C1412.52,1821.84 1409.8,1825.23 1406.86,1828.01L1401.83,1832.09L1395.85,1835.42C1385.32,1840.04 1373.02,1835.24 1368.41,1824.71C1363.92,1814.47 1368.33,1802.57 1378.25,1797.67C1378.48,1797.09 1379.56,1794.01 1377.61,1792.18C1369.06,1784.13 1350.75,1779.83 1317.5,1779.83C1224.98,1779.83 1144.83,1852.29 1144.83,1952.5C1144.83,2052.75 1231.2,2126.42 1317.5,2126.42C1403.8,2126.42 1490.17,2064.27 1490.17,1952.5L1490.17,1560.1C1448.07,1615.9 1380.45,1646.83 1317.56,1646.83C1216.51,1646.83 1103.17,1564.79 1103.17,1432.5C1103.17,1324.04 1187.3,1218.17 1317.56,1218.17C1458.48,1218.17 1531.83,1337.56 1531.83,1432.5ZM1490.17,1432.5C1490.17,1356.02 1431.08,1259.83 1317.56,1259.83C1212.62,1259.83 1144.83,1345.12 1144.83,1432.5C1144.83,1539.08 1236.15,1605.17 1317.56,1605.17C1398.94,1605.17 1490.17,1540.85 1490.17,1432.5Z"
   id="path4" />
            <g
   transform="matrix(0,0.484167,-1,0,2943.5,772.04903)"
   id="g5">
                <path
   d="m 689.75,1646.83 c -23.748,0 -43.029,-9.33 -43.029,-20.83 0,-11.5 19.281,-20.83 43.029,-20.83 h 1074.01 c 23.75,0 43.03,9.33 43.03,20.83 0,11.5 -19.28,20.83 -43.03,20.83 z"
   id="path5" />
            </g>
            <g
   transform="matrix(0.484167,-1.62776e-17,-2.17034e-17,1,723.545,67.1285)"
   id="g6">
                <path
   d="M689.75,1646.83C666.002,1646.83 646.721,1637.5 646.721,1626C646.721,1614.5 666.002,1605.17 689.75,1605.17L1763.76,1605.17C1787.51,1605.17 1806.79,1614.5 1806.79,1626C1806.79,1637.5 1787.51,1646.83 1763.76,1646.83L689.75,1646.83Z"
   id="path6" />
            </g>
            <g
   transform="matrix(0.942536,0,0,0.942536,748.426,606.569)"
   id="g7">
                <path
   d="M603.769,223.219C659.713,223.219 705.133,268.638 705.133,324.582C705.133,380.527 659.713,425.946 603.769,425.946C547.825,425.946 502.405,380.527 502.405,324.582C502.405,268.638 547.825,223.219 603.769,223.219ZM603.769,268.408C572.766,268.408 547.595,293.579 547.595,324.582C547.595,355.586 572.766,380.757 603.769,380.757C634.772,380.757 659.943,355.586 659.943,324.582C659.943,293.579 634.772,268.408 603.769,268.408Z"
   id="path7" />
            </g>
            <g
   transform="matrix(0.577778,0,0,0.577778,1014.17,679.063)"
   id="g8">
                <circle
   cx="525"
   cy="2204.03"
   r="165.356"
   id="circle7" />
            </g>
        </g>
    </g>
</svg>
