<?xml version="1.0" encoding="UTF-8" standalone="no"?>
<!DOCTYPE svg PUBLIC "-//W3C//DTD SVG 1.1//EN" "http://www.w3.org/Graphics/SVG/1.1/DTD/svg11.dtd">
<svg width="100%" height="100%" viewBox="0 0 1024 1024" version="1.1" xmlns="http://www.w3.org/2000/svg" xmlns:xlink="http://www.w3.org/1999/xlink" xml:space="preserve" xmlns:serif="http://www.serif.com/" style="fill-rule:evenodd;clip-rule:evenodd;stroke-linejoin:round;stroke-miterlimit:2;">
    <g id="favicon">
        <circle id="circle" cx="512" cy="512" r="512" style="fill:white;"/>
        <path id="outline" d="M512,0C794.58,0 1024,229.42 1024,512C1024,794.58 794.58,1024 512,1024C229.42,1024 0,794.58 0,512C0,229.42 229.42,0 512,0ZM512,64C264.742,64 64,264.742 64,512C64,759.258 264.742,960 512,960C759.258,960 960,759.258 960,512C960,264.742 759.258,64 512,64Z"/>
        <g id="i" transform="matrix(1.28297,0,0,1.61754,137,-272.508)">
            <path d="M261.346,674.708L261.346,464.388C232.611,476.217 202.875,487.397 172.139,497.927C141.403,508.457 109.849,518.05 77.476,526.705L52.924,498.143C122.398,472.467 186.507,443.688 245.251,411.809C303.994,379.929 359.555,343.217 411.934,301.672L476.315,346.679C433.758,376.972 387.927,404.235 338.822,428.47L329.001,666.052L261.346,674.708Z" style="fill-rule:nonzero;"/>
        </g>
    </g>
</svg>
